<?xml version="1.0" standalone="no"?>
<!DOCTYPE svg PUBLIC "-//W3C//DTD SVG 1.1//EN" "http://www.w3.org/Graphics/SVG/1.1/DTD/svg11.dtd" >
<svg xmlns="http://www.w3.org/2000/svg">
<metadata></metadata>
<defs>
<font id="baseoneheavy" horiz-adv-x="880" >
<font-face units-per-em="2048" ascent="1536" descent="-512" />
<missing-glyph horiz-adv-x="389" />
<glyph horiz-adv-x="0" />
<glyph horiz-adv-x="682" />
<glyph unicode=" "  horiz-adv-x="389" />
<glyph unicode="&#x09;" horiz-adv-x="389" />
<glyph unicode="&#xa0;" horiz-adv-x="389" />
<glyph unicode="!" horiz-adv-x="462" d="M78 1434h307l-27 -1094h-254zM82 0v287h301v-287h-301z" />
<glyph unicode="&#x22;" horiz-adv-x="761" d="M66 1434h307l-37 -459h-234zM393 1434h307l-36 -459h-234z" />
<glyph unicode="#" horiz-adv-x="995" d="M18 344l25 250h135l29 256h-135l28 250h136l36 334h256l-36 -334h94l37 334h256l-37 -334h137l-29 -250h-135l-29 -256h134l-25 -250h-135l-39 -344h-258l39 344h-92l-39 -344h-258l39 344h-134zM436 594h92l29 256h-92z" />
<glyph unicode="$" d="M70 346v111l280 26v-121q0 -60 21 -83t69 -23q37 0 60.5 20.5t23.5 61.5v29q0 62 -65 133q-14 17 -70 69q-52 48 -82 74q-49 45 -83.5 83.5t-70.5 91.5t-54.5 115t-18.5 130v29q0 130 61.5 216t175.5 115v131h244v-131q114 -29 178 -117.5t64 -220.5v-59l-281 -27v70 q0 61 -19.5 85t-60.5 24q-73 0 -73 -82v-27q0 -64 63 -133l70 -70q42 -36 82 -73q50 -46 84 -83.5t70.5 -90.5t55.5 -114.5t19 -129.5v-33q0 -132 -67.5 -219t-184.5 -115v-149h-244v151q-116 31 -181.5 119t-65.5 217z" />
<glyph unicode="%" horiz-adv-x="1187" d="M25 907v297q0 114 68.5 182t185.5 68t186.5 -68t69.5 -182v-297q0 -113 -69.5 -180.5t-186.5 -67.5t-185.5 67.5t-68.5 180.5zM131 -20l713 1474h213l-713 -1474h-213zM244 907q0 -32 9 -42.5t26 -10.5q18 0 27 10.5t9 42.5v297q0 32 -9 42.5t-27 10.5q-17 0 -26 -10.5 t-9 -42.5v-297zM655 229v297q0 113 68.5 180.5t185.5 67.5t186.5 -67.5t69.5 -180.5v-297q0 -114 -69.5 -181.5t-186.5 -67.5t-185.5 67.5t-68.5 181.5zM874 229q0 -32 9 -42.5t26 -10.5q18 0 27.5 10.5t9.5 42.5v297q0 32 -9.5 43t-27.5 11q-17 0 -26 -11t-9 -43v-297z" />
<glyph unicode="&#x26;" horiz-adv-x="980" d="M45 348v49q0 97 34 182.5t114 176.5q-66 108 -92.5 187t-26.5 163v10q0 163 88 250.5t252 87.5q163 0 252.5 -88.5t89.5 -243.5v-10q0 -100 -47 -180.5t-166 -196.5l71 -102v127l260 -15v-258q0 -116 -28 -196l203 -291h-347l-28 45q-95 -65 -238 -65q-180 0 -285.5 96 t-105.5 272zM334 367q0 -127 112 -127q47 0 80 20l-168 256q-24 -57 -24 -117v-32zM354 1104q0 -60 45 -150q47 55 63.5 87.5t16.5 66.5v8q0 78 -63 78q-62 0 -62 -82v-8z" />
<glyph unicode="'" horiz-adv-x="434" d="M63 1434h308l-37 -459h-234z" />
<glyph unicode="(" horiz-adv-x="610" d="M72 717q0 431 258 717h301q-145 -182 -208 -353t-63 -364t63 -364t208 -353h-301q-258 286 -258 717z" />
<glyph unicode=")" horiz-adv-x="610" d="M-23 0q145 183 209 354t64 363t-64 363t-209 354h302q260 -288 260 -717t-260 -717h-302z" />
<glyph unicode="*" horiz-adv-x="718" d="M-12 1100l84 227l180 -67l-14 174h262l-15 -174l181 67l84 -227l-193 -41l127 -133l-213 -138l-102 150l-103 -150l-213 138l127 133z" />
<glyph unicode="+" d="M6 606v221h316v314h239v-314h316v-221h-316v-313h-239v313h-316z" />
<glyph unicode="," horiz-adv-x="462" d="M68 -229l73 196h-59v262h301v-219l-131 -239h-184z" />
<glyph unicode="-" horiz-adv-x="600" d="M47 610v209h508v-209h-508z" />
<glyph unicode="." horiz-adv-x="462" d="M82 0v229h301v-229h-301z" />
<glyph unicode="/" horiz-adv-x="770" d="M-10 -102l538 1638h252l-538 -1638h-252z" />
<glyph unicode="0" horiz-adv-x="888" d="M59 360v713q0 175 103.5 278t281.5 103t282.5 -103t104.5 -278v-713q0 -175 -104.5 -277.5t-282.5 -102.5t-281.5 102.5t-103.5 277.5zM348 362q0 -122 96 -122q99 0 99 122v709q0 123 -99 123q-96 0 -96 -123v-709z" />
<glyph unicode="1" horiz-adv-x="690" d="M-2 1260q321 21 387 174h213v-1434h-289v1049h-250z" />
<glyph unicode="2" horiz-adv-x="780" d="M16 0v219l326 504q71 109 98 185.5t27 156.5v27q0 55 -21.5 78.5t-64.5 23.5q-42 0 -63 -27t-21 -100v-113l-281 66v82q0 165 99 258.5t270 93.5t271 -92t100 -254v-51q0 -107 -41 -213t-144 -264l-206 -316h391v-264h-740z" />
<glyph unicode="3" horiz-adv-x="819" d="M25 342v94l280 39v-108q0 -71 23 -99t73 -28q103 0 103 122v107q0 78 -28.5 109.5t-94.5 31.5h-125v260h125q58 0 83 28.5t25 102.5v74q0 119 -94 119q-44 0 -66 -28t-22 -99v-113l-280 66v72q0 169 99 265.5t275 96.5t276.5 -99.5t100.5 -271.5v-77q0 -177 -123 -258 q138 -89 138 -295v-103q0 -172 -102 -271t-283 -99q-180 0 -281.5 96t-101.5 266z" />
<glyph unicode="4" horiz-adv-x="841" d="M-8 289v213l471 932h274v-885h107l-56 -260h-51v-289h-288v289h-457zM299 549h150v307z" />
<glyph unicode="5" horiz-adv-x="819" d="M33 342v41l280 66v-82q0 -70 24 -98.5t71 -28.5q100 0 100 122v232q0 123 -100 123q-89 0 -95 -84l-4 -60l-270 11l47 850h659l-26 -265h-373l-14 -219q62 27 135 27q154 0 242 -99.5t88 -271.5v-256q0 -172 -102.5 -271t-280.5 -99t-279.5 96t-101.5 266z" />
<glyph unicode="6" horiz-adv-x="866" d="M59 360v730q0 170 101 267t278 97q176 0 276.5 -93.5t100.5 -262.5v-72l-280 -39v88q0 66 -23 92.5t-70 26.5q-48 0 -71 -25t-23 -82v-213q66 39 156 39q142 0 232.5 -97t90.5 -271v-185q0 -175 -104.5 -277.5t-282.5 -102.5q-175 0 -278 102.5t-103 277.5zM348 362 q0 -122 94 -122q97 0 97 122v168q0 123 -97 123q-94 0 -94 -123v-168z" />
<glyph unicode="7" horiz-adv-x="716" d="M-12 1434h747v-224l-411 -1210h-299l403 1161h-414z" />
<glyph unicode="8" horiz-adv-x="843" d="M29 350v103q0 209 131 295q-119 80 -119 258v77q0 172 101.5 271.5t279.5 99.5t280.5 -99.5t102.5 -271.5v-77q0 -177 -121 -258q133 -87 133 -295v-103q0 -173 -106 -271.5t-289 -98.5t-288 98.5t-105 271.5zM317 362q0 -122 105 -122q50 0 78 30t28 92v125 q0 62 -28.5 92.5t-77.5 30.5t-77 -30.5t-28 -92.5v-125zM330 983q0 -113 92 -113q94 0 94 113v98q0 113 -94 113q-92 0 -92 -113v-98z" />
<glyph unicode="9" horiz-adv-x="866" d="M41 889v184q0 175 103.5 278t281.5 103q175 0 279 -103t104 -278v-729q0 -170 -102 -267t-279 -97q-176 0 -275.5 93.5t-99.5 262.5v49l281 66v-93q0 -66 21.5 -92t68.5 -26q49 0 72.5 24.5t23.5 81.5v213q-70 -39 -158 -39q-141 0 -231 97t-90 272zM330 903 q0 -123 94 -123q96 0 96 123v168q0 123 -96 123q-94 0 -94 -123v-168z" />
<glyph unicode=":" horiz-adv-x="462" d="M84 0v283h301v-283h-301zM84 766v283h301v-283h-301z" />
<glyph unicode=";" horiz-adv-x="462" d="M70 -229l73 217h-59v286h301v-241l-131 -262h-184zM84 762v287h301v-287h-301z" />
<glyph unicode="&#x3c;" d="M6 618v193l871 334v-244l-496 -186l496 -183v-243z" />
<glyph unicode="=" d="M6 459v211h871v-211h-871zM6 764v211h871v-211h-871z" />
<glyph unicode="&#x3e;" d="M-2 287l31 245l473 183l-473 186l-31 246l879 -336v-193z" />
<glyph unicode="?" horiz-adv-x="755" d="M10 1067v37q0 164 96.5 257t262.5 93q168 0 264 -89.5t96 -260.5v-31q0 -91 -30.5 -165t-108.5 -167q-76 -90 -101.5 -151.5t-25.5 -151.5v-96h-268v96q0 147 31.5 237.5t119.5 196.5q56 66 75 108t19 89v27q0 56 -19.5 77t-53.5 21q-39 0 -57.5 -23t-18.5 -84v-71z M178 0v287h301v-287h-301z" />
<glyph unicode="@" horiz-adv-x="1511" d="M29 696q0 340 204.5 549t540.5 209q206 0 368.5 -82.5t255.5 -237t93 -354.5q0 -205 -96.5 -330.5t-274.5 -125.5q-146 0 -211 88q-79 -88 -213 -88q-132 0 -202 76.5t-70 217.5v195q0 142 70 219.5t202 77.5q106 0 176 -61l5 38h219v-460q0 -44 10.5 -58t32.5 -14 q44 0 72 51t28 158q0 212 -127 332.5t-336 120.5q-222 0 -352.5 -139.5t-130.5 -381.5q0 -218 138 -348.5t370 -130.5q87 0 160 23t161 79l123 -210q-198 -129 -448 -129q-224 0 -399 90.5t-272 253.5t-97 372zM688 639q0 -49 13 -65.5t42 -16.5q56 0 88 68v184 q-32 68 -88 68q-29 0 -42 -16.5t-13 -67.5v-154z" />
<glyph unicode="A" horiz-adv-x="849" d="M-4 0l260 1434h338l260 -1434h-295l-47 309h-178l-47 -309h-291zM373 565h100l-49 350z" />
<glyph unicode="B" horiz-adv-x="854" d="M61 0v1434h338q184 0 283.5 -98.5t99.5 -280.5v-27q0 -192 -135 -278q166 -89 166 -324v-47q0 -183 -103 -281t-294 -98h-355zM350 260h58q61 0 88.5 30t27.5 103v76q0 78 -29 109.5t-98 31.5h-47v-350zM350 870h31q62 0 87.5 28t25.5 103v46q0 71 -25 99t-78 28h-41 v-304z" />
<glyph unicode="C" horiz-adv-x="833" d="M59 342v750q0 169 98 265.5t271 96.5q175 0 275 -96.5t100 -265.5v-111l-281 -66v156q0 69 -23 96t-65 27q-43 0 -64.5 -24.5t-21.5 -79.5v-746q0 -55 21.5 -79.5t64.5 -24.5q42 0 65 26.5t23 95.5v193l281 -39v-174q0 -169 -100 -265.5t-275 -96.5q-173 0 -271 96.5 t-98 265.5z" />
<glyph unicode="D" horiz-adv-x="882" d="M82 0v1434h346q191 0 294 -98t103 -281v-676q0 -183 -103 -281t-294 -98h-346zM371 260h49q62 0 89.5 30t27.5 103v647q0 73 -28 103.5t-89 30.5h-49v-914z" />
<glyph unicode="E" horiz-adv-x="794" d="M82 0v1434h682v-260h-393v-318h319l-26 -260h-293v-336h393v-260h-682z" />
<glyph unicode="F" horiz-adv-x="743" d="M82 0v1434h672v-260h-383v-318h309l-27 -260h-282v-596h-289z" />
<glyph unicode="G" horiz-adv-x="862" d="M59 342v750q0 169 98.5 265.5t274.5 96.5q178 0 278.5 -96.5t100.5 -265.5v-82l-281 -66v127q0 68 -23 95.5t-69 27.5t-68 -24t-22 -80v-746q0 -56 21.5 -80t66.5 -24t67.5 26.5t22.5 95.5v201h-123v260h408v-481q0 -169 -100.5 -265.5t-278.5 -96.5q-176 0 -274.5 96.5 t-98.5 265.5z" />
<glyph unicode="H" horiz-adv-x="925" d="M82 0v1434h289v-576h186v576h289v-1434h-289v594h-186v-594h-289z" />
<glyph unicode="I" horiz-adv-x="450" d="M82 0v1411l289 27v-1438h-289z" />
<glyph unicode="J" horiz-adv-x="616" d="M-10 6l45 260q66 -21 74 -22q20 -4 41 -4q59 0 83.5 25.5t24.5 92.5v1053l289 27v-1086q0 -179 -93.5 -275.5t-277.5 -96.5q-82 0 -186 26z" />
<glyph unicode="K" horiz-adv-x="864" d="M61 0v1434h289v-467l246 467h309l-315 -580l313 -854h-307l-197 549l-49 -84v-465h-289z" />
<glyph unicode="L" horiz-adv-x="718" d="M82 0v1434h289v-1170h362v-264h-651z" />
<glyph unicode="M" horiz-adv-x="1153" d="M82 0v1434h348l143 -617l142 617h358v-1434h-289v725l-141 -530h-145l-140 530v-725h-276z" />
<glyph unicode="N" horiz-adv-x="940" d="M82 0v1434h303l199 -627v627h276v-1434h-276l-226 719v-719h-276z" />
<glyph unicode="O" horiz-adv-x="888" d="M59 360v713q0 175 103.5 278t281.5 103t282.5 -103t104.5 -278v-713q0 -175 -104.5 -277.5t-282.5 -102.5t-281.5 102.5t-103.5 277.5zM348 362q0 -122 96 -122q99 0 99 122v709q0 123 -99 123q-96 0 -96 -123v-709z" />
<glyph unicode="P" horiz-adv-x="833" d="M82 0v1434h348q191 0 294 -98t103 -281v-111q0 -183 -103 -281t-294 -98h-59v-565h-289zM371 825h51q62 0 89.5 30t27.5 103v82q0 73 -28 103.5t-89 30.5h-51v-349z" />
<glyph unicode="Q" horiz-adv-x="888" d="M61 356v717q0 175 103.5 278t281.5 103t283 -103t105 -278v-717q0 -113 -50 -202q24 -9 115 -9l-88 -245q-39 6 -96 12q-93 15 -142 80q-66 -17 -127 -17q-178 0 -281.5 103t-103.5 278zM350 358q0 -120 96 -120q99 0 99 120v713q0 123 -99 123q-96 0 -96 -123v-713z" />
<glyph unicode="R" horiz-adv-x="856" d="M61 0v1434h349q191 0 294 -98t103 -281v-99q0 -215 -148 -315l205 -641h-305l-172 578h-37v-578h-289zM350 838h51q62 0 89.5 30t27.5 103v69q0 73 -28 103.5t-89 30.5h-51v-336z" />
<glyph unicode="S" horiz-adv-x="731" d="M6 326v100l281 51v-135q0 -55 21.5 -78.5t64.5 -23.5q40 0 62 21t22 75v43q0 54 -34.5 105t-137.5 141q-147 130 -208 231.5t-61 222.5v33q0 165 96 253.5t263 88.5q166 0 263 -91.5t97 -254.5v-49l-280 -51v84q0 58 -19 80t-59 22q-36 0 -54 -18t-18 -60v-29 q0 -47 34.5 -97t135.5 -138q149 -130 209.5 -233.5t60.5 -231.5v-65q0 -163 -101 -252.5t-267 -89.5t-268.5 92t-102.5 254z" />
<glyph unicode="T" horiz-adv-x="720" d="M-16 1169v265h753v-265h-231v-1169h-289v1169h-233z" />
<glyph unicode="U" d="M70 340v1094h280v-1088q0 -58 21.5 -80t64.5 -22t65.5 22t22.5 80v1088h289v-1094q0 -174 -100.5 -267t-274.5 -93q-170 0 -269 94t-99 266z" />
<glyph unicode="V" horiz-adv-x="841" d="M-4 1434h295l133 -871l131 871h291l-254 -1434h-342z" />
<glyph unicode="W" horiz-adv-x="1214" d="M-2 1434h295l96 -705l94 705h254l94 -705l97 705h289l-232 -1434h-283l-94 623l-96 -623h-283z" />
<glyph unicode="X" horiz-adv-x="841" d="M-33 0l287 741l-270 693h307l135 -385l129 385h303l-270 -699l286 -735h-305l-155 430l-144 -430h-303z" />
<glyph unicode="Y" horiz-adv-x="770" d="M-76 1434h307l160 -437l150 437h303l-312 -789v-645h-288v645z" />
<glyph unicode="Z" horiz-adv-x="716" d="M4 0v213l383 961h-340l-27 260h691v-213l-385 -961h385v-260h-707z" />
<glyph unicode="[" horiz-adv-x="610" d="M102 0v1434h465v-217h-176v-1000h176v-217h-465z" />
<glyph unicode="\" horiz-adv-x="770" d="M-10 1536h252l538 -1638h-252z" />
<glyph unicode="]" horiz-adv-x="610" d="M43 0v217h176v1000h-176v217h465v-1434h-465z" />
<glyph unicode="^" d="M-25 850l367 584h201l364 -584h-282l-183 297l-184 -297h-283z" />
<glyph unicode="_" horiz-adv-x="901" d="M-37 -102h975v-148h-975v148z" />
<glyph unicode="`" horiz-adv-x="512" d="M-55 1741h317l160 -225h-238z" />
<glyph unicode="a" horiz-adv-x="849" d="M-4 0l260 1434h338l260 -1434h-295l-47 309h-178l-47 -309h-291zM373 565h100l-49 350z" />
<glyph unicode="b" horiz-adv-x="854" d="M82 0v1434h338q184 0 283.5 -98.5t99.5 -280.5v-27q0 -201 -117 -278q148 -81 148 -324v-47q0 -183 -103.5 -281t-294.5 -98h-354zM371 260h57q62 0 89.5 30t27.5 103v76q0 78 -29 109.5t-98 31.5h-47v-350zM371 870h30q62 0 87.5 28t25.5 103v46q0 71 -24.5 99t-77.5 28 h-41v-304z" />
<glyph unicode="c" horiz-adv-x="833" d="M59 342v750q0 169 98 265.5t271 96.5q175 0 275 -96.5t100 -265.5v-111l-281 -66v156q0 69 -23 96t-65 27q-43 0 -64.5 -24.5t-21.5 -79.5v-746q0 -55 21.5 -79.5t64.5 -24.5q42 0 65 26.5t23 95.5v193l281 -39v-174q0 -169 -100 -265.5t-275 -96.5q-173 0 -271 96.5 t-98 265.5z" />
<glyph unicode="d" horiz-adv-x="882" d="M82 0v1434h346q191 0 294 -98t103 -281v-676q0 -183 -103 -281t-294 -98h-346zM371 260h49q62 0 89.5 30t27.5 103v647q0 73 -28 103.5t-89 30.5h-49v-914z" />
<glyph unicode="e" horiz-adv-x="794" d="M82 0v1434h682v-260h-393v-318h319l-26 -260h-293v-336h393v-260h-682z" />
<glyph unicode="f" horiz-adv-x="743" d="M82 0v1434h672v-260h-383v-318h309l-27 -260h-282v-596h-289z" />
<glyph unicode="g" horiz-adv-x="862" d="M59 342v750q0 169 98.5 265.5t274.5 96.5q178 0 278.5 -96.5t100.5 -265.5v-82l-281 -66v127q0 68 -23 95.5t-69 27.5t-68 -24t-22 -80v-746q0 -56 21.5 -80t66.5 -24t67.5 26.5t22.5 95.5v201h-123v260h408v-481q0 -169 -100.5 -265.5t-278.5 -96.5q-176 0 -274.5 96.5 t-98.5 265.5z" />
<glyph unicode="h" horiz-adv-x="925" d="M82 0v1434h289v-576h186v576h289v-1434h-289v594h-186v-594h-289z" />
<glyph unicode="i" horiz-adv-x="450" d="M82 0v1411l289 27v-1438h-289z" />
<glyph unicode="j" horiz-adv-x="616" d="M-6 6l16 260q88 -26 140 -26q59 0 83.5 25.5t24.5 92.5v1076h289v-1082q0 -179 -93.5 -275.5t-277.5 -96.5q-83 0 -182 26z" />
<glyph unicode="k" horiz-adv-x="864" d="M61 0v1434h289v-467l246 467h309l-315 -580l313 -854h-307l-197 549l-49 -84v-465h-289z" />
<glyph unicode="l" horiz-adv-x="718" d="M82 0v1434h289v-1170h362v-264h-651z" />
<glyph unicode="m" horiz-adv-x="1153" d="M82 0v1434h348l143 -617l142 617h358v-1434h-289v725l-141 -530h-145l-140 530v-725h-276z" />
<glyph unicode="n" horiz-adv-x="940" d="M82 0v1434h303l199 -627v627h276v-1434h-276l-226 719v-719h-276z" />
<glyph unicode="o" horiz-adv-x="888" d="M59 360v713q0 175 103.5 278t281.5 103t282.5 -103t104.5 -278v-713q0 -175 -104.5 -277.5t-282.5 -102.5t-281.5 102.5t-103.5 277.5zM348 362q0 -122 96 -122q99 0 99 122v709q0 123 -99 123q-96 0 -96 -123v-709z" />
<glyph unicode="p" horiz-adv-x="833" d="M82 0v1434h348q191 0 294 -98t103 -281v-111q0 -183 -103 -281t-294 -98h-59v-565h-289zM371 825h51q62 0 89.5 30t27.5 103v82q0 73 -28 103.5t-89 30.5h-51v-349z" />
<glyph unicode="q" horiz-adv-x="888" d="M61 356v717q0 175 103.5 278t281.5 103t283 -103t105 -278v-717q0 -113 -50 -202q24 -9 115 -9l-88 -245q-39 6 -96 12q-93 15 -142 80q-66 -17 -127 -17q-178 0 -281.5 103t-103.5 278zM350 358q0 -120 96 -120q99 0 99 120v713q0 123 -99 123q-96 0 -96 -123v-713z" />
<glyph unicode="r" horiz-adv-x="856" d="M61 0v1434h349q191 0 294 -98t103 -281v-99q0 -215 -148 -315l205 -641h-305l-172 578h-37v-578h-289zM350 838h51q62 0 89.5 30t27.5 103v69q0 73 -28 103.5t-89 30.5h-51v-336z" />
<glyph unicode="s" horiz-adv-x="731" d="M6 326v100l281 51v-135q0 -55 21.5 -78.5t64.5 -23.5q40 0 62 21t22 75v43q0 54 -34.5 105t-137.5 141q-147 130 -208 231.5t-61 222.5v33q0 165 96 253.5t263 88.5q166 0 263 -91.5t97 -254.5v-49l-280 -51v84q0 58 -19 80t-59 22q-36 0 -54 -18t-18 -60v-29 q0 -47 34.5 -97t135.5 -138q149 -130 209.5 -233.5t60.5 -231.5v-65q0 -163 -101 -252.5t-267 -89.5t-268.5 92t-102.5 254z" />
<glyph unicode="t" horiz-adv-x="720" d="M-16 1169v265h753v-265h-231v-1169h-289v1169h-233z" />
<glyph unicode="u" d="M70 340v1094h280v-1088q0 -58 21.5 -80t64.5 -22t65.5 22t22.5 80v1088h289v-1094q0 -174 -100.5 -267t-274.5 -93q-170 0 -269 94t-99 266z" />
<glyph unicode="v" horiz-adv-x="841" d="M-4 1434h295l133 -871l131 871h291l-254 -1434h-342z" />
<glyph unicode="w" horiz-adv-x="1214" d="M-2 1434h295l96 -705l94 705h254l94 -705l97 705h289l-232 -1434h-283l-94 623l-96 -623h-283z" />
<glyph unicode="x" horiz-adv-x="841" d="M-33 0l287 741l-270 693h307l135 -385l129 385h303l-270 -699l286 -735h-305l-155 430l-144 -430h-303z" />
<glyph unicode="y" horiz-adv-x="770" d="M-76 1434h307l160 -437l150 437h303l-312 -789v-645h-288v645z" />
<glyph unicode="z" horiz-adv-x="716" d="M4 0v213l383 961h-340l-27 260h691v-213l-385 -961h385v-260h-707z" />
<glyph unicode="{" horiz-adv-x="610" d="M23 608v217q77 0 98.5 16.5t21.5 69.5v219q0 161 78.5 232.5t245.5 71.5h100v-217q-88 0 -111.5 -19t-23.5 -80v-225q0 -116 -78 -176q78 -60 78 -176v-226q0 -61 23.5 -79.5t111.5 -18.5v-217h-100q-167 0 -245.5 71.5t-78.5 231.5v219q0 53 -21.5 69.5t-98.5 16.5z" />
<glyph unicode="|" horiz-adv-x="481" d="M123 -307v2048h237v-2048h-237z" />
<glyph unicode="}" horiz-adv-x="610" d="M43 0v217q87 0 111 19t24 79v226q0 117 76 176q-76 59 -76 176v225q0 61 -24 80t-111 19v217h98q167 0 246.5 -72t79.5 -232v-219q0 -53 21 -69.5t100 -16.5v-217q-79 0 -100 -16.5t-21 -69.5v-219q0 -160 -79.5 -231.5t-246.5 -71.5h-98z" />
<glyph unicode="~" horiz-adv-x="884" d="M-33 686q92 99 165.5 135.5t166.5 36.5q84 0 195 -51q70 -33 98 -33q36 0 63.5 17t96.5 86l166 -129q-92 -99 -165.5 -136t-166.5 -37q-82 0 -195 52q-68 32 -98 32q-37 0 -64.5 -17t-95.5 -85z" />
<glyph unicode="&#xa1;" horiz-adv-x="462" d="M76 0l26 1094h254l27 -1094h-307zM80 1147v287h301v-287h-301z" />
<glyph unicode="&#xa2;" d="M78 539v356q0 135 64 225t184 121v129h243v-129q120 -31 186 -121t66 -225v-35l-280 -41v55q0 68 -22.5 95.5t-65.5 27.5t-64.5 -24.5t-21.5 -79.5v-354q0 -103 86 -103q43 0 65.5 27t22.5 96v94l280 -39v-75q0 -135 -66 -225t-186 -121v-150h-243v150q-120 31 -184 121 t-64 225z" />
<glyph unicode="&#xa3;" d="M37 2v227q94 73 127 150t33 199v32h-160v260h160v211q0 180 92.5 276.5t275.5 96.5q123 0 232 -53l-23 -258q-77 31 -112.5 41t-67.5 10q-60 0 -84.5 -25.5t-24.5 -91.5v-207h312v-260h-312v-61q0 -177 -71 -283h424v-264h-801z" />
<glyph unicode="&#xa4;" d="M-23 434l166 152q-20 47 -20 110q0 64 20 111l-166 151l170 158l166 -151q56 20 127 20t127 -20l166 151l170 -158l-166 -151q23 -54 23 -111q0 -56 -23 -110l166 -152l-170 -158l-166 152q-56 -20 -127 -20t-127 20l-166 -152zM371 696q0 -31 18.5 -50t50.5 -19t52 19 t20 50t-20 50.5t-52 19.5t-50.5 -19.5t-18.5 -50.5z" />
<glyph unicode="&#xa5;" d="M-16 1434h307l155 -424l146 424h303l-279 -703h191v-209h-219v-63h219v-209h-219v-250h-289v250h-219v209h219v63h-219v209h186z" />
<glyph unicode="&#xa6;" horiz-adv-x="481" d="M123 -307v860h237v-860h-237zM123 881v860h237v-860h-237z" />
<glyph unicode="&#xa7;" horiz-adv-x="831" d="M29 598v31q0 145 121 239q-107 86 -107 240v35q0 146 97.5 228.5t260.5 82.5q175 0 280 -93t105 -253v-45l-268 -27v68q0 100 -106 100q-93 0 -93 -67v-19q0 -33 30.5 -59t137.5 -72q173 -72 245.5 -151t72.5 -205v-31q0 -88 -53 -160.5t-177 -144.5l41 70 q96 -34 135.5 -93t39.5 -151v-35q0 -146 -98.5 -228.5t-262.5 -82.5q-175 0 -279 93t-104 253v45l268 27v-68q0 -100 105 -100q48 0 71 18.5t23 48.5v19q0 32 -31 58.5t-139 72.5q-172 72 -243.5 150.5t-71.5 205.5zM305 610q0 -33 27 -58t121 -65q36 15 55.5 40.5 t19.5 54.5v36q0 33 -27.5 58t-121.5 65q-36 -15 -55 -40t-19 -54v-37z" />
<glyph unicode="&#xa8;" horiz-adv-x="512" d="M-27 1530v196h267v-196h-267zM274 1530v196h265v-196h-265z" />
<glyph unicode="&#xa9;" horiz-adv-x="1519" d="M29 717q0 217 91 384.5t257.5 260t382.5 92.5t383 -92.5t258.5 -260t91.5 -384.5t-91.5 -384.5t-258.5 -260t-383 -92.5t-382.5 92.5t-257.5 260t-91 384.5zM268 717q0 -242 133.5 -383t358.5 -141t359 141t134 383t-134 383t-359 141t-358.5 -141t-133.5 -383zM492 516 v402q0 122 71 192t195 70q126 0 199 -70.5t73 -191.5v-76l-235 -39v104q0 36 -7.5 45t-23.5 9q-15 0 -21 -6.5t-6 -32.5v-410q0 -26 6 -32.5t21 -6.5q11 0 16 2t10 14t5 37v127l235 -37v-100q0 -121 -73 -191.5t-199 -70.5q-124 0 -195 70t-71 192z" />
<glyph unicode="&#xaa;" horiz-adv-x="540" d="M6 535v184h494v-184h-494zM6 977v24q0 98 68 151.5t170 53.5h45v25q0 39 -37 39q-18 0 -26.5 -9.5t-8.5 -33.5v-23v-24l-203 8v41q0 105 65.5 165t176.5 60q114 0 179 -61.5t65 -167.5v-432h-166l-4 22q-47 -33 -117 -33q-91 0 -149 53.5t-58 141.5zM217 983 q0 -6 1.5 -9.5t8 -6t19.5 -2.5q22 0 32.5 10t10.5 35v22h-37q-35 0 -35 -24v-25z" />
<glyph unicode="&#xab;" horiz-adv-x="888" d="M35 645v143l407 279v-285l-102 -65l102 -66v-284zM424 645v143l407 279v-285l-102 -65l102 -66v-284z" />
<glyph unicode="&#xac;" d="M6 590v211h871v-508h-240v297h-631z" />
<glyph unicode="&#xad;" horiz-adv-x="600" d="M47 610v209h508v-209h-508z" />
<glyph unicode="&#xae;" horiz-adv-x="1519" d="M29 717q0 217 91 384.5t257.5 260t382.5 92.5t383 -92.5t258.5 -260t91.5 -384.5t-91.5 -384.5t-258.5 -260t-383 -92.5t-382.5 92.5t-257.5 260t-91 384.5zM268 717q0 -242 133.5 -383t358.5 -141t359 141t134 383t-134 383t-359 141t-358.5 -141t-133.5 -383zM498 266 v901h266q139 0 214 -67.5t75 -194.5v-43q0 -145 -99 -211l148 -385h-262l-97 285v-285h-245zM743 817h17q25 0 35 11t10 49v16q0 36 -10 46.5t-35 10.5h-17v-133z" />
<glyph unicode="&#xaf;" horiz-adv-x="512" d="M25 1563v131h464v-131h-464z" />
<glyph unicode="&#xb0;" horiz-adv-x="569" d="M25 1229q0 98 73.5 161.5t186.5 63.5t187.5 -63.5t74.5 -161.5t-74.5 -161.5t-187.5 -63.5t-186.5 63.5t-73.5 161.5zM238 1229q0 -45 47 -45q49 0 49 45t-49 45q-47 0 -47 -45z" />
<glyph unicode="&#xb1;" d="M6 0v225h871v-225h-871zM6 594v227h316v320h239v-320h316v-227h-316v-320h-239v320h-316z" />
<glyph unicode="&#xb2;" horiz-adv-x="485" d="M-6 795v153l201 289q42 60 56.5 96.5t14.5 77.5v19q0 25 -6.5 31.5t-21.5 6.5q-18 0 -23.5 -11.5t-5.5 -47.5v-82l-215 37v66q0 105 66 167t180 62q113 0 179 -59.5t66 -161.5v-29q0 -66 -24 -125t-90 -154l-103 -143h217v-192h-491z" />
<glyph unicode="&#xb3;" horiz-adv-x="514" d="M2 991v70l215 37v-74q0 -39 8.5 -49t28.5 -10t29.5 10.5t9.5 42.5v55q0 38 -11 50t-42 12h-97v190h97q25 0 34 10t9 47v37q0 31 -8.5 40t-24.5 9q-18 0 -24.5 -12.5t-6.5 -46.5v-74l-215 37v51q0 108 66 172t182 64t183 -64t67 -172v-39q0 -94 -62 -147q72 -60 72 -174 v-53q0 -109 -69 -172.5t-187 -63.5q-120 0 -187 54t-67 163z" />
<glyph unicode="&#xb4;" horiz-adv-x="512" d="M90 1516l160 225h317l-239 -225h-238z" />
<glyph unicode="&#xb5;" horiz-adv-x="901" d="M82 -252v1096h289v-525q0 -56 20 -77t60 -21t60.5 21t20.5 77v525h289v-860h-227l-19 55q-74 -74 -192 -74h-12v-217h-289z" />
<glyph unicode="&#xb6;" horiz-adv-x="1026" d="M33 1001v82q0 169 93.5 260t268.5 91h531v-1639h-244v1395h-72v-1395h-243v856q-161 7 -247.5 98.5t-86.5 251.5z" />
<glyph unicode="&#xb7;" horiz-adv-x="462" d="M82 602v229h301v-229h-301z" />
<glyph unicode="&#xb8;" horiz-adv-x="512" d="M20 -127l224 8v-26v-19q0 -8 10 -8q12 0 12 8q0 19 -22 19h-15h-55v174h170v-82q152 -14 152 -119q0 -129 -244 -129q-105 0 -168.5 32.5t-63.5 100.5v41z" />
<glyph unicode="&#xb9;" horiz-adv-x="401" d="M-20 1538q104 3 150.5 25t72.5 75h164v-843h-220v579h-133z" />
<glyph unicode="&#xba;" horiz-adv-x="577" d="M41 535v184h498v-184h-498zM41 1022v192q0 111 66 175.5t182 64.5t183 -64.5t67 -175.5v-192q0 -111 -67 -175.5t-183 -64.5t-182 64.5t-66 175.5zM250 1016q0 -28 9.5 -37.5t29.5 -9.5q21 0 31 10t10 37v205q0 28 -10.5 38.5t-30.5 10.5t-29.5 -10.5t-9.5 -38.5v-205z " />
<glyph unicode="&#xbb;" horiz-adv-x="888" d="M59 367v284l101 66l-101 65v285l408 -279v-143zM449 367v284l100 66l-100 65v285l407 -279v-143z" />
<glyph unicode="&#xbc;" horiz-adv-x="1083" d="M-18 1329q104 4 150.5 27.5t72.5 77.5h164v-873h-219v602h-134zM145 -20l543 1474h211l-543 -1474h-211zM541 168v160l284 544h209v-507h68l-31 -197h-37v-168h-219v168h-274zM774 365h41v79z" />
<glyph unicode="&#xbd;" horiz-adv-x="1132" d="M-20 1329q104 4 150.5 27.5t72.5 77.5h164v-873h-220v602h-133zM147 -20l543 1474h211l-543 -1474h-211zM643 0v158l199 299q42 62 56.5 99.5t14.5 80.5v18q0 27 -6.5 34t-21.5 7q-18 0 -23.5 -12.5t-5.5 -48.5v-84l-213 37v67q0 108 65.5 173t178.5 65t179.5 -61.5 t66.5 -167.5v-31q0 -67 -24.5 -127.5t-90.5 -159.5l-103 -149h218v-197h-490z" />
<glyph unicode="&#xbe;" horiz-adv-x="1196" d="M4 784v54l215 36v-75q0 -41 8.5 -51.5t28.5 -10.5t29.5 11t9.5 45v57q0 41 -11 53t-42 12h-97v195h97q25 0 34 10t9 49v37q0 33 -8.5 42t-24.5 9q-19 0 -25 -12.5t-6 -48.5v-76l-215 39v51q0 113 66 178.5t182 65.5q117 0 183.5 -65.5t66.5 -178.5v-39q0 -97 -62 -153 q72 -60 72 -178v-56q0 -113 -68 -177t-188 -64t-187 64t-67 177zM258 -20l543 1474h211l-543 -1474h-211zM653 168v160l285 544h209v-507h67l-30 -197h-37v-168h-219v168h-275zM887 365h41v79z" />
<glyph unicode="&#xbf;" horiz-adv-x="755" d="M29 330v30q0 92 30 165.5t107 166.5q77 91 103 152.5t26 150.5v97h268v-97q0 -147 -32 -237t-121 -197q-56 -66 -74.5 -107.5t-18.5 -88.5v-27q0 -57 19 -77.5t53 -20.5q40 0 59 22.5t19 83.5v70l281 -27v-59q0 -163 -97 -256.5t-264 -93.5q-168 0 -263 89.5t-95 260.5z M279 1147v287h301v-287h-301z" />
<glyph unicode="&#xc0;" horiz-adv-x="849" d="M-4 0l260 1446h338l260 -1446h-295l-47 313h-178l-47 -313h-291zM119 1741h315l156 -287h-236zM373 571h100l-49 353z" />
<glyph unicode="&#xc1;" horiz-adv-x="849" d="M-4 0l260 1446h338l260 -1446h-295l-47 313h-178l-47 -313h-291zM262 1454l156 287h315l-235 -287h-236zM373 571h100l-49 353z" />
<glyph unicode="&#xc2;" horiz-adv-x="849" d="M-4 0l260 1446h338l260 -1446h-295l-47 313h-178l-47 -313h-291zM111 1454l184 287h262l184 -287h-241l-74 90l-74 -90h-241zM373 571h100l-49 353z" />
<glyph unicode="&#xc3;" horiz-adv-x="849" d="M-4 0l260 1446h338l260 -1446h-295l-47 313h-178l-47 -313h-291zM133 1571q52 86 98 122t107 36q48 0 113 -35q45 -25 59 -25q8 0 14 3t22 20t40 51l133 -119q-52 -86 -98 -122t-107 -36q-49 0 -113 37q-47 23 -59 23q-8 0 -14 -3t-22 -20t-40 -51zM373 571h100l-49 351z " />
<glyph unicode="&#xc4;" horiz-adv-x="849" d="M-4 0l260 1446h338l260 -1446h-295l-47 313h-178l-47 -313h-291zM145 1468v258h265v-258h-265zM373 571h100l-49 351zM444 1468v258h265v-258h-265z" />
<glyph unicode="&#xc5;" horiz-adv-x="849" d="M-4 0l260 1448h338l260 -1448h-295l-47 313h-178l-47 -313h-291zM236 1622q0 82 53.5 134t136.5 52q84 0 138 -52.5t54 -133.5q0 -80 -54.5 -132t-137.5 -52t-136.5 52t-53.5 132zM373 571h100l-49 353zM406 1622q0 -25 20 -25q23 0 23 25q0 27 -23 27q-20 0 -20 -27z " />
<glyph unicode="&#xc6;" horiz-adv-x="1253" d="M-27 0l471 1434h779v-260h-394v-318h320l-27 -260h-293v-336h394v-260h-682v309h-181l-96 -309h-291zM440 565h101v322z" />
<glyph unicode="&#xc7;" horiz-adv-x="833" d="M59 334v756q0 170 98 267t271 97q175 0 275 -97t100 -267v-113l-281 -66v156q0 70 -23 97.5t-65 27.5q-86 0 -86 -105v-751q0 -57 21.5 -81t64.5 -24q42 0 65 27t23 96v195l281 -39v-176q0 -148 -75 -242t-212 -117v-6l-20 19q79 -2 125.5 -36t46.5 -102 q0 -151 -244 -151q-106 0 -168.5 38.5t-62.5 119.5v43l223 12v-29v-24q0 -13 10 -13q12 0 12 13q0 21 -22 24h-15h-55v92q-138 23 -212.5 117t-74.5 242z" />
<glyph unicode="&#xc8;" horiz-adv-x="794" d="M82 0v1446h682v-262h-393v-320h319l-26 -262h-293v-340h393v-262h-682zM113 1741h315l156 -287h-236z" />
<glyph unicode="&#xc9;" horiz-adv-x="794" d="M82 0v1446h682v-262h-393v-320h319l-26 -262h-293v-340h393v-262h-682zM256 1454l156 287h315l-235 -287h-236z" />
<glyph unicode="&#xca;" horiz-adv-x="794" d="M82 0v1446h682v-262h-393v-320h319l-26 -262h-293v-340h393v-262h-682zM104 1454l185 287h262l184 -287h-241l-74 90l-74 -90h-242z" />
<glyph unicode="&#xcb;" horiz-adv-x="794" d="M82 0v1446h682v-262h-393v-320h319l-26 -262h-293v-340h393v-262h-682zM139 1468v258h264v-258h-264zM438 1468v258h264v-258h-264z" />
<glyph unicode="&#xcc;" horiz-adv-x="450" d="M-82 1741h315l156 -287h-235zM82 0v1423l289 27v-1450h-289z" />
<glyph unicode="&#xcd;" horiz-adv-x="450" d="M61 1454l156 287h315l-235 -287h-236zM82 0v1423l289 27v-1450h-289z" />
<glyph unicode="&#xce;" horiz-adv-x="450" d="M-90 1454l184 287h262l185 -287h-242l-74 90l-73 -90h-242zM82 0v1423l289 27v-1450h-289z" />
<glyph unicode="&#xcf;" horiz-adv-x="450" d="M-57 1468v258h266v-258h-266zM82 0v1423l289 25v-1448h-289zM244 1468v258h264v-258h-264z" />
<glyph unicode="&#xd0;" horiz-adv-x="897" d="M6 586v260h90v588h346q191 0 294.5 -98t103.5 -281v-676q0 -183 -103.5 -281t-294.5 -98h-346v586h-90zM385 260h49q62 0 89.5 30t27.5 103v647q0 73 -28 103.5t-89 30.5h-49v-328h129v-260h-129v-326z" />
<glyph unicode="&#xd1;" horiz-adv-x="940" d="M82 0v1446h303l199 -633v633h276v-1446h-276l-226 725v-725h-276zM178 1571q52 86 98 122t107 36q48 0 113 -35q45 -25 59 -25q8 0 14 3t22 20t40 51l133 -119q-52 -86 -98 -122t-107 -36q-49 0 -113 37q-47 23 -59 23q-8 0 -14 -3t-22 -20t-40 -51z" />
<glyph unicode="&#xd2;" horiz-adv-x="888" d="M59 362v721q0 175 103.5 279t281.5 104t282.5 -104t104.5 -279v-721q0 -177 -104 -279.5t-283 -102.5q-178 0 -281.5 102.5t-103.5 279.5zM137 1741h316l155 -287h-235zM348 365q0 -123 96 -123q99 0 99 123v716q0 121 -99 121q-96 0 -96 -121v-716z" />
<glyph unicode="&#xd3;" horiz-adv-x="888" d="M59 362v721q0 175 103.5 279t281.5 104t282.5 -104t104.5 -279v-721q0 -177 -104 -279.5t-283 -102.5q-178 0 -281.5 102.5t-103.5 279.5zM281 1454l155 287h316l-236 -287h-235zM348 365q0 -123 96 -123q99 0 99 123v716q0 121 -99 121q-96 0 -96 -121v-716z" />
<glyph unicode="&#xd4;" horiz-adv-x="888" d="M59 362v721q0 175 103.5 279t281.5 104t282.5 -104t104.5 -279v-721q0 -177 -104 -279.5t-283 -102.5q-178 0 -281.5 102.5t-103.5 279.5zM129 1454l184 287h262l185 -287h-242l-74 90l-73 -90h-242zM348 365q0 -123 96 -123q99 0 99 123v716q0 121 -99 121 q-96 0 -96 -121v-716z" />
<glyph unicode="&#xd5;" horiz-adv-x="888" d="M59 362v719q0 177 103.5 280t281.5 103q179 0 283 -103t104 -280v-719q0 -177 -104 -279.5t-283 -102.5q-178 0 -281.5 102.5t-103.5 279.5zM152 1571q52 86 97.5 122t106.5 36q48 0 113 -35q45 -25 59 -25q8 0 14 3t22 20t40 51l133 -119q-52 -86 -98 -122t-107 -36 q-47 0 -112 35q-45 25 -60 25q-8 0 -14 -3t-21.5 -20t-39.5 -51zM348 365q0 -123 96 -123q99 0 99 123v714q0 123 -99 123q-96 0 -96 -123v-714z" />
<glyph unicode="&#xd6;" horiz-adv-x="888" d="M59 362v719q0 177 103.5 280t281.5 103q179 0 283 -103t104 -280v-719q0 -177 -104 -279.5t-283 -102.5q-178 0 -281.5 102.5t-103.5 279.5zM164 1468v258h264v-258h-264zM348 365q0 -123 96 -123q99 0 99 123v714q0 123 -99 123q-96 0 -96 -123v-714zM463 1468v258h264 v-258h-264z" />
<glyph unicode="&#xd7;" d="M4 469l266 248l-266 248l170 155l266 -248l267 248l170 -155l-267 -248l267 -248l-170 -156l-267 248l-266 -248z" />
<glyph unicode="&#xd8;" horiz-adv-x="888" d="M37 47l57 133q-35 78 -35 180v713q0 175 103.5 278t281.5 103q106 0 187 -37l20 47l201 -78l-57 -133q36 -80 36 -180v-713q0 -175 -104.5 -277.5t-282.5 -102.5q-107 0 -186 36l-20 -47zM348 764l172 397q-23 33 -76 33q-96 0 -96 -123v-307zM369 272q22 -32 75 -32 q99 0 99 122v308z" />
<glyph unicode="&#xd9;" d="M70 342v1104h280v-1098q0 -58 21.5 -80t64.5 -22t65.5 22t22.5 80v1098h289v-1104q0 -174 -101 -268t-274 -94q-170 0 -269 94t-99 268zM133 1741h316l155 -287h-235z" />
<glyph unicode="&#xda;" d="M70 342v1104h280v-1098q0 -58 21.5 -80t64.5 -22t65.5 22t22.5 80v1098h289v-1104q0 -174 -101 -268t-274 -94q-170 0 -269 94t-99 268zM276 1454l156 287h316l-236 -287h-236z" />
<glyph unicode="&#xdb;" d="M70 342v1104h280v-1098q0 -58 21.5 -80t64.5 -22t65.5 22t22.5 80v1098h289v-1104q0 -174 -101 -268t-274 -94q-170 0 -269 94t-99 268zM125 1454l184 287h262l185 -287h-242l-74 90l-73 -90h-242z" />
<glyph unicode="&#xdc;" d="M70 342v1104h280v-1098q0 -58 21.5 -80t64.5 -22t65.5 22t22.5 80v1098h289v-1104q0 -174 -101 -268t-274 -94q-170 0 -269 94t-99 268zM160 1468v258h264v-258h-264zM459 1468v258h264v-258h-264z" />
<glyph unicode="&#xdd;" horiz-adv-x="770" d="M-76 1446h307l160 -440l150 440h303l-312 -797v-649h-288v651zM221 1454l156 287h315l-235 -287h-236z" />
<glyph unicode="&#xde;" horiz-adv-x="833" d="M82 0v1434h289v-195h59q191 0 294 -99t103 -282v-108q0 -183 -103 -281t-294 -98h-59v-371h-289zM371 631h51q62 0 89.5 30t27.5 103v82q0 73 -27.5 103t-89.5 30h-51v-348z" />
<glyph unicode="&#xdf;" horiz-adv-x="1462" d="M6 326v100l281 51v-135q0 -55 21.5 -78.5t64.5 -23.5q40 0 62 21t22 75v43q0 54 -34.5 105t-137.5 141q-147 130 -208 231.5t-61 222.5v33q0 165 96 253.5t263 88.5q166 0 263 -91.5t97 -254.5v-49l-280 -51v84q0 58 -19 80t-59 22q-36 0 -54 -18t-18 -60v-29 q0 -47 34.5 -97t135.5 -138q149 -130 209.5 -233.5t60.5 -231.5v-65q0 -163 -101 -252.5t-267 -89.5t-268.5 92t-102.5 254zM737 326v100l281 51v-135q0 -55 21.5 -78.5t64.5 -23.5q40 0 62 21t22 75v43q0 54 -34.5 105t-137.5 141q-147 130 -207.5 231.5t-60.5 222.5v33 q0 165 95.5 253.5t262.5 88.5q166 0 263 -91.5t97 -254.5v-49l-280 -51v84q0 58 -19 80t-59 22q-36 0 -54 -18t-18 -60v-29q0 -47 34.5 -97t135.5 -138q149 -130 210 -233.5t61 -231.5v-65q0 -163 -101.5 -252.5t-267.5 -89.5t-268.5 92t-102.5 254z" />
<glyph unicode="&#xe0;" horiz-adv-x="849" d="M-4 0l260 1446h338l260 -1446h-295l-47 313h-178l-47 -313h-291zM119 1741h315l156 -287h-236zM373 571h100l-49 353z" />
<glyph unicode="&#xe1;" horiz-adv-x="849" d="M-4 0l260 1446h338l260 -1446h-295l-47 313h-178l-47 -313h-291zM262 1454l156 287h315l-235 -287h-236zM373 571h100l-49 353z" />
<glyph unicode="&#xe2;" horiz-adv-x="849" d="M-4 0l260 1446h338l260 -1446h-295l-47 313h-178l-47 -313h-291zM111 1454l184 287h262l184 -287h-241l-74 90l-74 -90h-241zM373 571h100l-49 353z" />
<glyph unicode="&#xe3;" horiz-adv-x="849" d="M-4 0l260 1446h338l260 -1446h-295l-47 313h-178l-47 -313h-291zM133 1571q52 86 98 122t107 36q48 0 113 -35q45 -25 59 -25q8 0 14 3t22 20t40 51l133 -119q-52 -86 -98 -122t-107 -36q-49 0 -113 37q-47 23 -59 23q-8 0 -14 -3t-22 -20t-40 -51zM373 571h100l-49 351z " />
<glyph unicode="&#xe4;" horiz-adv-x="849" d="M-4 0l260 1446h338l260 -1446h-295l-47 313h-178l-47 -313h-291zM145 1468v258h265v-258h-265zM373 571h100l-49 351zM444 1468v258h265v-258h-265z" />
<glyph unicode="&#xe5;" horiz-adv-x="849" d="M-4 0l260 1448h338l260 -1448h-295l-47 313h-178l-47 -313h-291zM236 1622q0 82 53.5 134t136.5 52q84 0 138 -52.5t54 -133.5q0 -80 -54.5 -132t-137.5 -52t-136.5 52t-53.5 132zM373 571h100l-49 353zM406 1622q0 -25 20 -25q23 0 23 25q0 27 -23 27q-20 0 -20 -27z " />
<glyph unicode="&#xe6;" horiz-adv-x="1253" d="M-27 0l471 1434h779v-260h-394v-318h318v-260h-318v-336h394v-260h-682v309h-181l-96 -309h-291zM440 565h101v322z" />
<glyph unicode="&#xe7;" horiz-adv-x="833" d="M59 334v756q0 170 98 267t271 97q175 0 275 -97t100 -267v-113l-281 -66v156q0 70 -23 97.5t-65 27.5q-86 0 -86 -105v-751q0 -57 21.5 -81t64.5 -24q42 0 65 27t23 96v195l281 -39v-176q0 -148 -75 -242t-212 -117v-6l-20 19q79 -2 125.5 -36t46.5 -102 q0 -151 -244 -151q-106 0 -168.5 38.5t-62.5 119.5v43l223 12v-29v-24q0 -13 10 -13q12 0 12 13q0 21 -22 24h-15h-55v92q-138 23 -212.5 117t-74.5 242z" />
<glyph unicode="&#xe8;" horiz-adv-x="794" d="M82 0v1446h682v-262h-393v-320h319l-26 -262h-293v-340h393v-262h-682zM113 1741h315l156 -287h-236z" />
<glyph unicode="&#xe9;" horiz-adv-x="794" d="M82 0v1446h682v-262h-393v-320h319l-26 -262h-293v-340h393v-262h-682zM256 1454l156 287h315l-235 -287h-236z" />
<glyph unicode="&#xea;" horiz-adv-x="794" d="M82 0v1446h682v-262h-393v-320h319l-26 -262h-293v-340h393v-262h-682zM104 1454l185 287h262l184 -287h-241l-74 90l-74 -90h-242z" />
<glyph unicode="&#xeb;" horiz-adv-x="794" d="M82 0v1446h682v-262h-393v-320h319l-26 -262h-293v-340h393v-262h-682zM139 1468v258h264v-258h-264zM438 1468v258h264v-258h-264z" />
<glyph unicode="&#xec;" horiz-adv-x="450" d="M-82 1741h315l156 -287h-235zM82 0v1423l289 27v-1450h-289z" />
<glyph unicode="&#xed;" horiz-adv-x="450" d="M61 1454l156 287h315l-235 -287h-236zM82 0v1423l289 27v-1450h-289z" />
<glyph unicode="&#xee;" horiz-adv-x="450" d="M-90 1454l184 287h262l185 -287h-242l-74 90l-73 -90h-242zM82 0v1423l289 27v-1450h-289z" />
<glyph unicode="&#xef;" horiz-adv-x="450" d="M-57 1468v258h266v-258h-266zM82 0v1423l289 25v-1448h-289zM244 1468v258h264v-258h-264z" />
<glyph unicode="&#xf0;" horiz-adv-x="897" d="M6 586v260h90v588h346q191 0 294.5 -98t103.5 -281v-676q0 -183 -103.5 -281t-294.5 -98h-346v586h-90zM385 260h49q62 0 89.5 30t27.5 103v647q0 73 -28 103.5t-89 30.5h-49v-328h129v-260h-129v-326z" />
<glyph unicode="&#xf1;" horiz-adv-x="940" d="M82 0v1446h303l199 -633v633h276v-1446h-276l-226 725v-725h-276zM178 1571q52 86 98 122t107 36q48 0 113 -35q45 -25 59 -25q8 0 14 3t22 20t40 51l133 -119q-52 -86 -98 -122t-107 -36q-49 0 -113 37q-47 23 -59 23q-8 0 -14 -3t-22 -20t-40 -51z" />
<glyph unicode="&#xf2;" horiz-adv-x="888" d="M59 362v721q0 175 103.5 279t281.5 104t282.5 -104t104.5 -279v-721q0 -177 -104 -279.5t-283 -102.5q-178 0 -281.5 102.5t-103.5 279.5zM137 1741h316l155 -287h-235zM348 365q0 -123 96 -123q99 0 99 123v716q0 121 -99 121q-96 0 -96 -121v-716z" />
<glyph unicode="&#xf3;" horiz-adv-x="888" d="M59 362v721q0 175 103.5 279t281.5 104t282.5 -104t104.5 -279v-721q0 -177 -104 -279.5t-283 -102.5q-178 0 -281.5 102.5t-103.5 279.5zM281 1454l155 287h316l-236 -287h-235zM348 365q0 -123 96 -123q99 0 99 123v716q0 121 -99 121q-96 0 -96 -121v-716z" />
<glyph unicode="&#xf4;" horiz-adv-x="888" d="M59 362v721q0 175 103.5 279t281.5 104t282.5 -104t104.5 -279v-721q0 -177 -104 -279.5t-283 -102.5q-178 0 -281.5 102.5t-103.5 279.5zM129 1454l184 287h262l185 -287h-242l-74 90l-73 -90h-242zM348 365q0 -123 96 -123q99 0 99 123v716q0 121 -99 121 q-96 0 -96 -121v-716z" />
<glyph unicode="&#xf5;" horiz-adv-x="888" d="M59 362v719q0 177 103.5 280t281.5 103q179 0 283 -103t104 -280v-719q0 -177 -104 -279.5t-283 -102.5q-178 0 -281.5 102.5t-103.5 279.5zM152 1571q52 86 97.5 122t106.5 36q48 0 113 -35q45 -25 59 -25q8 0 14 3t22 20t40 51l133 -119q-52 -86 -98 -122t-107 -36 q-47 0 -112 35q-45 25 -60 25q-8 0 -14 -3t-21.5 -20t-39.5 -51zM348 365q0 -123 96 -123q99 0 99 123v714q0 123 -99 123q-96 0 -96 -123v-714z" />
<glyph unicode="&#xf6;" horiz-adv-x="888" d="M59 362v719q0 177 103.5 280t281.5 103q179 0 283 -103t104 -280v-719q0 -177 -104 -279.5t-283 -102.5q-178 0 -281.5 102.5t-103.5 279.5zM164 1468v258h264v-258h-264zM348 365q0 -123 96 -123q99 0 99 123v714q0 123 -99 123q-96 0 -96 -123v-714zM463 1468v258h264 v-258h-264z" />
<glyph unicode="&#xf7;" d="M6 606v221h871v-221h-871zM301 281v260h281v-260h-281zM301 893v260h281v-260h-281z" />
<glyph unicode="&#xf8;" horiz-adv-x="888" d="M37 47l57 133q-35 78 -35 180v713q0 175 103.5 278t281.5 103q106 0 187 -37l20 47l201 -78l-57 -133q36 -80 36 -180v-713q0 -175 -104.5 -277.5t-282.5 -102.5q-107 0 -186 36l-20 -47zM348 764l172 397q-23 33 -76 33q-96 0 -96 -123v-307zM369 272q22 -32 75 -32 q99 0 99 122v308z" />
<glyph unicode="&#xf9;" d="M70 342v1104h280v-1098q0 -58 21.5 -80t64.5 -22t65.5 22t22.5 80v1098h289v-1104q0 -174 -101 -268t-274 -94q-170 0 -269 94t-99 268zM133 1741h316l155 -287h-235z" />
<glyph unicode="&#xfa;" d="M70 342v1104h280v-1098q0 -58 21.5 -80t64.5 -22t65.5 22t22.5 80v1098h289v-1104q0 -174 -101 -268t-274 -94q-170 0 -269 94t-99 268zM276 1454l156 287h316l-236 -287h-236z" />
<glyph unicode="&#xfb;" d="M70 342v1104h280v-1098q0 -58 21.5 -80t64.5 -22t65.5 22t22.5 80v1098h289v-1104q0 -174 -101 -268t-274 -94q-170 0 -269 94t-99 268zM125 1454l184 287h262l185 -287h-242l-74 90l-73 -90h-242z" />
<glyph unicode="&#xfc;" d="M70 342v1104h280v-1098q0 -58 21.5 -80t64.5 -22t65.5 22t22.5 80v1098h289v-1104q0 -174 -101 -268t-274 -94q-170 0 -269 94t-99 268zM160 1468v258h264v-258h-264zM459 1468v258h264v-258h-264z" />
<glyph unicode="&#xfd;" horiz-adv-x="770" d="M-76 1446h307l160 -440l150 440h303l-312 -797v-649h-288v651zM221 1454l156 287h315l-235 -287h-236z" />
<glyph unicode="&#xfe;" horiz-adv-x="833" d="M82 0v1434h289v-195h59q191 0 294 -99t103 -282v-108q0 -183 -103 -281t-294 -98h-59v-371h-289zM371 631h51q62 0 89.5 30t27.5 103v82q0 73 -27.5 103t-89.5 30h-51v-348z" />
<glyph unicode="&#xff;" horiz-adv-x="770" d="M-76 1446h307l160 -440l150 440h303l-312 -797v-649h-288v651zM104 1468v258h265v-258h-265zM403 1468v258h265v-258h-265z" />
<glyph unicode="&#x152;" horiz-adv-x="1228" d="M59 379v676q0 183 102.5 281t293.5 98h741v-260h-393v-318h319l-26 -260h-293v-336h393v-260h-741q-191 0 -293.5 98t-102.5 281zM348 393q0 -74 27 -103.5t88 -29.5h51v914h-51q-61 0 -88 -30t-27 -104v-647z" />
<glyph unicode="&#x153;" horiz-adv-x="1228" d="M59 379v676q0 183 102.5 281t293.5 98h741v-260h-393v-318h319l-26 -260h-293v-336h393v-260h-741q-191 0 -293.5 98t-102.5 281zM348 393q0 -74 27 -103.5t88 -29.5h51v914h-51q-61 0 -88 -30t-27 -104v-647z" />
<glyph unicode="&#x178;" horiz-adv-x="770" d="M-76 1446h307l160 -440l150 440h303l-312 -797v-649h-288v651zM104 1468v258h265v-258h-265zM403 1468v258h265v-258h-265z" />
<glyph unicode="&#x2c6;" horiz-adv-x="512" d="M-61 1516l188 225h258l188 -225h-243l-74 69l-74 -69h-243z" />
<glyph unicode="&#x2dc;" horiz-adv-x="512" d="M-39 1608q55 67 100.5 94t106.5 27q46 0 113 -27q41 -16 59 -16q25 0 76 53l135 -90q-55 -67 -100.5 -94t-106.5 -27q-48 0 -113 26q-44 17 -59 17q-25 0 -76 -53z" />
<glyph unicode="&#x2000;" horiz-adv-x="904" />
<glyph unicode="&#x2001;" horiz-adv-x="1808" />
<glyph unicode="&#x2002;" horiz-adv-x="904" />
<glyph unicode="&#x2003;" horiz-adv-x="1808" />
<glyph unicode="&#x2004;" horiz-adv-x="602" />
<glyph unicode="&#x2005;" horiz-adv-x="452" />
<glyph unicode="&#x2006;" horiz-adv-x="301" />
<glyph unicode="&#x2007;" horiz-adv-x="301" />
<glyph unicode="&#x2008;" horiz-adv-x="226" />
<glyph unicode="&#x2009;" horiz-adv-x="361" />
<glyph unicode="&#x200a;" horiz-adv-x="100" />
<glyph unicode="&#x2010;" horiz-adv-x="600" d="M47 610v209h508v-209h-508z" />
<glyph unicode="&#x2011;" horiz-adv-x="600" d="M47 610v209h508v-209h-508z" />
<glyph unicode="&#x2012;" horiz-adv-x="600" d="M47 610v209h508v-209h-508z" />
<glyph unicode="&#x2013;" horiz-adv-x="901" d="M27 633v168h850v-168h-850z" />
<glyph unicode="&#x2014;" horiz-adv-x="1638" d="M27 633v168h1587v-168h-1587z" />
<glyph unicode="&#x2018;" horiz-adv-x="434" d="M66 975v219l129 240h184l-74 -197h62v-262h-301z" />
<glyph unicode="&#x2019;" horiz-adv-x="434" d="M55 975l74 196h-59v263h301v-220l-131 -239h-185z" />
<glyph unicode="&#x201a;" horiz-adv-x="434" d="M55 -229l74 196h-59v262h301v-219l-131 -239h-185z" />
<glyph unicode="&#x201c;" horiz-adv-x="761" d="M66 975v219l129 240h184l-74 -197h62v-262h-301zM393 975v219l129 240h185l-74 -197h61v-262h-301z" />
<glyph unicode="&#x201d;" horiz-adv-x="761" d="M55 975l74 196h-59v263h301v-220l-131 -239h-185zM383 975l74 196h-60v263h301v-220l-131 -239h-184z" />
<glyph unicode="&#x201e;" horiz-adv-x="761" d="M45 -229l74 196h-60v262h301v-219l-131 -239h-184zM383 -229l74 196h-60v262h301v-219l-131 -239h-184z" />
<glyph unicode="&#x2022;" horiz-adv-x="901" d="M109 717q0 132 98 219.5t244 87.5q147 0 245.5 -87.5t98.5 -219.5t-98.5 -219.5t-245.5 -87.5q-146 0 -244 87.5t-98 219.5z" />
<glyph unicode="&#x2026;" horiz-adv-x="1638" d="M123 0v229h301v-229h-301zM670 0v229h301v-229h-301zM1217 0v229h301v-229h-301z" />
<glyph unicode="&#x202f;" horiz-adv-x="361" />
<glyph unicode="&#x2039;" horiz-adv-x="499" d="M35 645v143l407 279v-285l-102 -65l102 -66v-284z" />
<glyph unicode="&#x203a;" horiz-adv-x="499" d="M57 367v284l101 66l-101 65v285l408 -279v-143z" />
<glyph unicode="&#x205f;" horiz-adv-x="452" />
<glyph unicode="&#x20ac;" d="M23 516v186h69v68h-69v186h69v136q0 169 98 265.5t271 96.5q175 0 275 -96.5t100 -265.5v-56l-281 -39v74q0 69 -23 96t-65 27q-43 0 -64.5 -24.5t-21.5 -79.5v-134h240v-186h-240v-68h240v-186h-240v-172q0 -55 21.5 -79.5t64.5 -24.5q42 0 65 26.5t23 95.5v115l281 -39 v-96q0 -169 -100 -265.5t-275 -96.5q-173 0 -271 96.5t-98 265.5v174h-69z" />
<glyph unicode="&#x2122;" horiz-adv-x="1159" d="M-18 1243v191h487v-191h-135v-600h-217v600h-135zM457 643v791h250l59 -230l57 230h256v-791h-217v213l-28 -108h-140l-26 108v-213h-211z" />
<glyph unicode="&#x25fc;" horiz-adv-x="1433" d="M0 0v1434h1434v-1434h-1434z" />
<glyph unicode="&#xfb01;" horiz-adv-x="1193" d="M82 0v1434h672v-260h-383v-318h309l-27 -260h-282v-596h-289zM825 0v1411l289 27v-1438h-289z" />
<glyph unicode="&#xfb02;" horiz-adv-x="1462" d="M82 0v1434h672v-260h-383v-318h309l-27 -260h-282v-596h-289zM825 0v1434h289v-1170h363v-264h-652z" />
</font>
</defs>
</svg>
